<svg preserveAspectRatio="none" width="100%" height="100%" overflow="visible" style="display: block;" viewBox="0 0 19.3 20" fill="none" xmlns="http://www.w3.org/2000/svg">
<path id="Vector" d="M9.65 10C9.36667 10 9.12917 9.90417 8.9375 9.7125C8.74583 9.52083 8.65 9.28333 8.65 9C8.65 8.71667 8.74583 8.47917 8.9375 8.2875C9.12917 8.09583 9.36667 8 9.65 8C9.93333 8 10.1708 8.09583 10.3625 8.2875C10.5542 8.47917 10.65 8.71667 10.65 9C10.65 9.28333 10.5542 9.52083 10.3625 9.7125C10.1708 9.90417 9.93333 10 9.65 10ZM9.65 6C9.36667 6 9.12917 5.90417 8.9375 5.7125C8.74583 5.52083 8.65 5.28333 8.65 5C8.65 4.71667 8.74583 4.47917 8.9375 4.2875C9.12917 4.09583 9.36667 4 9.65 4C9.93333 4 10.1708 4.09583 10.3625 4.2875C10.5542 4.47917 10.65 4.71667 10.65 5C10.65 5.28333 10.5542 5.52083 10.3625 5.7125C10.1708 5.90417 9.93333 6 9.65 6ZM9.65 2C9.36667 2 9.12917 1.90417 8.9375 1.7125C8.74583 1.52083 8.65 1.28333 8.65 1C8.65 0.716667 8.74583 0.479167 8.9375 0.2875C9.12917 0.0958333 9.36667 0 9.65 0C9.93333 0 10.1708 0.0958333 10.3625 0.2875C10.5542 0.479167 10.65 0.716667 10.65 1C10.65 1.28333 10.5542 1.52083 10.3625 1.7125C10.1708 1.90417 9.93333 2 9.65 2ZM12.65 12C12.3667 12 12.1292 11.9042 11.9375 11.7125C11.7458 11.5208 11.65 11.2833 11.65 11C11.65 10.7167 11.7458 10.4792 11.9375 10.2875C12.1292 10.0958 12.3667 10 12.65 10C12.9333 10 13.1708 10.0958 13.3625 10.2875C13.5542 10.4792 13.65 10.7167 13.65 11C13.65 11.2833 13.5542 11.5208 13.3625 11.7125C13.1708 11.9042 12.9333 12 12.65 12ZM15.475 9.15C15.1917 9.15 14.9542 9.05417 14.7625 8.8625C14.5708 8.67083 14.475 8.43333 14.475 8.15C14.475 7.86667 14.5708 7.62917 14.7625 7.4375C14.9542 7.24583 15.1917 7.15 15.475 7.15C15.7583 7.15 15.9958 7.24583 16.1875 7.4375C16.3792 7.62917 16.475 7.86667 16.475 8.15C16.475 8.43333 16.3792 8.67083 16.1875 8.8625C15.9958 9.05417 15.7583 9.15 15.475 9.15ZM18.3 6.35C18.0167 6.35 17.7792 6.25417 17.5875 6.0625C17.3958 5.87083 17.3 5.63333 17.3 5.35C17.3 5.06667 17.3958 4.82917 17.5875 4.6375C17.7792 4.44583 18.0167 4.35 18.3 4.35C18.5833 4.35 18.8208 4.44583 19.0125 4.6375C19.2042 4.82917 19.3 5.06667 19.3 5.35C19.3 5.63333 19.2042 5.87083 19.0125 6.0625C18.8208 6.25417 18.5833 6.35 18.3 6.35ZM6.65 12C6.36667 12 6.12917 11.9042 5.9375 11.7125C5.74583 11.5208 5.65 11.2833 5.65 11C5.65 10.7167 5.74583 10.4792 5.9375 10.2875C6.12917 10.0958 6.36667 10 6.65 10C6.93333 10 7.17083 10.0958 7.3625 10.2875C7.55417 10.4792 7.65 10.7167 7.65 11C7.65 11.2833 7.55417 11.5208 7.3625 11.7125C7.17083 11.9042 6.93333 12 6.65 12ZM3.825 9.15C3.54167 9.15 3.30417 9.05417 3.1125 8.8625C2.92083 8.67083 2.825 8.43333 2.825 8.15C2.825 7.86667 2.92083 7.62917 3.1125 7.4375C3.30417 7.24583 3.54167 7.15 3.825 7.15C4.10833 7.15 4.34583 7.24583 4.5375 7.4375C4.72917 7.62917 4.825 7.86667 4.825 8.15C4.825 8.43333 4.72917 8.67083 4.5375 8.8625C4.34583 9.05417 4.10833 9.15 3.825 9.15ZM1 6.35C0.716667 6.35 0.479167 6.25417 0.2875 6.0625C0.0958333 5.87083 0 5.63333 0 5.35C0 5.06667 0.0958333 4.82917 0.2875 4.6375C0.479167 4.44583 0.716667 4.35 1 4.35C1.28333 4.35 1.52083 4.44583 1.7125 4.6375C1.90417 4.82917 2 5.06667 2 5.35C2 5.63333 1.90417 5.87083 1.7125 6.0625C1.52083 6.25417 1.28333 6.35 1 6.35ZM8.65 20V16H4.65V14H14.65V16H10.65V20H8.65Z" fill="var(--fill-0, white)"/>
</svg>
